<svg width="144" height="101" viewBox="0 0 144 101" fill="none" xmlns="http://www.w3.org/2000/svg">
<path d="M140.512 15.7712C138.868 9.5634 134.022 4.67449 127.869 3.01533C116.718 0 72 0 72 0C72 0 27.2827 0 16.1311 3.01533C9.97764 4.67449 5.13126 9.5634 3.48777 15.7712C0.5 27.0231 0.5 50.5 0.5 50.5C0.5 50.5 0.5 73.9757 3.48777 85.2288C5.13126 91.4372 9.97764 96.3249 16.1305 97.9859C27.2821 101 71.9994 101 71.9994 101C71.9994 101 116.717 101 127.868 97.9859C134.022 96.3255 138.867 91.4372 140.512 85.2294C143.5 73.9763 143.5 50.5006 143.5 50.5006C143.5 50.5006 143.5 27.0237 140.512 15.7718" fill="#F0302F"/>
<path d="M140.512 15.7712C138.868 9.5634 134.022 4.67449 127.869 3.01533C116.718 0 72 0 72 0C72 0 27.2827 0 16.1311 3.01533C9.97764 4.67449 5.13126 9.5634 3.48777 15.7712C0.5 27.0231 0.5 50.5 0.5 50.5C0.5 50.5 0.5 73.9757 3.48777 85.2288C5.13126 91.4372 9.97764 96.3249 16.1305 97.9859C27.2821 101 71.9994 101 71.9994 101C71.9994 101 116.717 101 127.868 97.9859C134.022 96.3255 138.867 91.4372 140.512 85.2294C143.5 73.9763 143.5 50.5006 143.5 50.5006C143.5 50.5006 143.5 27.0237 140.512 15.7718" fill="url(#paint0_linear_101_35)" fill-opacity="0.2"/>
<circle cx="56" cy="32" r="6" transform="rotate(-180 56 32)" fill="white"/>
<circle cx="91" cy="33" r="6" transform="rotate(-180 91 33)" fill="white"/>
<line x1="49.7901" y1="74.482" x2="98.9115" y2="65.2099" stroke="white" stroke-width="7" stroke-linecap="square"/>
<defs>
<linearGradient id="paint0_linear_101_35" x1="6" y1="-2.66232e-07" x2="137.995" y2="96.5068" gradientUnits="userSpaceOnUse">
<stop offset="0.00999551"/>
<stop offset="1" stop-color="white" stop-opacity="0.25"/>
</linearGradient>
</defs>
</svg>
